<?xml version="1.0" standalone="no"?>
<!DOCTYPE svg PUBLIC "-//W3C//DTD SVG 20010904//EN"
 "http://www.w3.org/TR/2001/REC-SVG-20010904/DTD/svg10.dtd">
<svg version="1.0" xmlns="http://www.w3.org/2000/svg"
 width="3464.000000pt" height="3464.000000pt" viewBox="0 0 3464.000000 3464.000000"
 preserveAspectRatio="xMidYMid meet">

<g transform="translate(0.000000,3464.000000) scale(0.100000,-0.100000)"
fill="#000000" stroke="none">
<path d="M15022 23898 c-12 -14 -22 -29 -22 -35 0 -6 -6 -13 -14 -16 -16 -6
-20 -113 -5 -123 5 -3 9 -14 9 -25 0 -17 -6 -19 -57 -16 -51 3 -59 6 -71 30
-17 35 -40 35 -44 0 l-3 -28 -825 0 -825 0 -3 -3999 c-2 -3193 0 -4001 10
-4008 7 -4 113 -8 236 -8 l222 0 0 -200 0 -200 3324 0 c2945 0 3325 -2 3330
-15 3 -8 15 -15 26 -15 11 0 20 7 20 15 0 10 10 15 30 15 25 0 30 -4 30 -24 0
-24 -23 -56 -41 -56 -5 0 -9 -5 -9 -11 0 -7 11 -9 26 -6 27 5 27 6 8 -53 -3
-9 4 -19 18 -25 13 -5 24 -19 26 -30 2 -11 10 -39 19 -62 12 -33 21 -43 38
-43 23 0 55 -28 55 -48 0 -22 29 -12 47 16 10 15 23 31 30 35 15 9 11 93 -6
125 -8 15 -9 28 -2 41 12 21 5 32 -15 24 -8 -3 -23 2 -33 11 -11 10 -41 20
-67 24 -53 8 -64 24 -40 57 12 16 17 18 27 8 16 -16 49 -17 49 -2 0 5 4 8 10
4 5 -3 6 -13 3 -22 -5 -12 -3 -14 8 -7 8 4 24 7 37 5 17 -2 22 3 22 18 0 15 6
21 24 21 18 0 25 -7 32 -32 l8 -33 3 33 c4 32 5 32 57 32 50 0 54 -2 66 -30
18 -44 32 -48 28 -9 l-3 34 823 3 822 2 0 4015 c0 2208 -1 4016 -2 4017 -2 0
-97 4 -213 7 l-210 6 -3 181 -2 182 -42 6 c-23 4 -1555 6 -3404 6 -3609 -2
-3423 -4 -3416 46 1 11 -6 41 -17 66 -15 36 -25 46 -50 51 -22 5 -34 15 -43
37 l-13 32 -23 -24z m78 -153 c0 -8 -7 -15 -15 -15 -8 0 -15 7 -15 15 0 8 7
15 15 15 8 0 15 -7 15 -15z m-200 -127 c85 -3 178 -10 205 -14 46 -8 50 -11
47 -34 -2 -14 -4 -40 -5 -57 -1 -19 -7 -33 -14 -33 -12 0 -17 13 -14 34 3 13
-20 36 -35 36 -8 0 -14 -7 -14 -16 0 -8 -5 -12 -11 -9 -6 4 -8 12 -6 19 3 8
-6 10 -29 8 -28 -3 -34 -8 -34 -28 0 -19 5 -24 25 -24 17 0 23 -4 19 -15 -4
-10 3 -18 20 -25 29 -11 37 -44 9 -37 -74 20 -73 20 -73 -23 0 -38 -2 -40 -29
-40 -25 0 -30 -4 -33 -27 -3 -27 -5 -28 -58 -28 l-55 0 -3 55 c-2 30 -4 76 -3
102 1 45 -20 111 -38 122 -6 4 -7 -15 -4 -49 5 -46 3 -55 -10 -55 -35 0 -65
-23 -75 -58 -10 -33 -9 -41 13 -74 14 -21 25 -39 25 -40 0 -2 -245 -2 -545 0
l-545 4 0 -3791 0 -3791 -180 0 -180 0 0 3943 c0 2169 3 3947 7 3951 8 8 1386
3 1623 -6z m7019 -2 c8 -9 11 -60 9 -157 l-3 -144 -3202 -3 -3203 -2 0 29 c0
31 -14 49 -25 31 -3 -5 -21 -10 -40 -10 -29 0 -34 -4 -37 -27 -3 -26 -6 -28
-46 -28 -24 0 -49 3 -54 6 -24 15 49 79 88 79 17 0 18 12 2 28 -17 17 -39 15
-52 -4 -11 -14 -17 -13 -58 8 -40 20 -44 25 -34 43 6 11 19 26 29 33 23 18 22
38 -3 45 -14 4 -23 -2 -33 -21 -7 -15 -22 -28 -35 -30 -20 -3 -22 1 -22 37 0
37 5 46 44 78 8 7 43 14 78 16 34 2 1531 4 3324 5 2770 2 3263 0 3273 -12z
m-6696 -253 c11 -7 8 -23 -6 -29 -19 -7 -89 25 -82 37 6 9 68 3 88 -8z m-238
-33 c3 -5 1 -10 -4 -10 -6 0 -11 5 -11 10 0 6 2 10 4 10 3 0 8 -4 11 -10z
m-232 -105 c28 -26 35 -45 17 -45 -16 0 -12 -37 5 -44 22 -8 18 -23 -15 -58
-35 -37 -37 -44 -10 -60 23 -15 25 -33 6 -67 -10 -19 -11 -29 -3 -42 9 -14 7
-22 -6 -37 -9 -10 -14 -21 -11 -25 14 -13 -7 -76 -27 -82 -16 -5 -18 -10 -8
-21 6 -8 18 -13 27 -12 8 2 17 -3 20 -11 3 -11 -1 -12 -19 -8 -13 4 -30 7 -36
7 -7 0 -13 9 -13 20 0 18 -3 19 -21 9 -17 -9 -23 -8 -30 2 -11 17 -2 50 17 65
16 13 19 34 4 34 -5 0 -8 16 -6 35 1 20 -3 40 -11 46 -7 6 -10 15 -7 21 3 5 0
15 -6 23 -6 8 -9 19 -6 24 4 6 2 18 -3 28 -5 10 -12 26 -15 36 -3 9 -10 17
-16 17 -15 0 -16 -218 -4 -3460 5 -1266 10 -1737 18 -1742 13 -9 887 -11 910
-2 14 6 16 74 16 668 0 502 3 665 12 674 9 9 219 12 884 12 480 0 879 -3 888
-6 14 -5 16 -62 16 -533 0 -289 3 -732 7 -983 l6 -458 464 0 c254 0 463 1 463
3 1 1 3 299 6 662 3 363 7 666 9 673 4 9 191 12 895 12 841 0 890 -1 889 -17
0 -10 3 -520 6 -1133 3 -613 6 -1163 6 -1222 1 -86 4 -108 15 -108 8 0 14 -4
14 -10 0 -5 -7 -10 -15 -10 -8 0 -15 -9 -15 -20 0 -15 7 -20 28 -20 40 0 78
-41 63 -68 -6 -12 -11 -30 -11 -41 0 -23 -28 -28 -60 -11 -18 10 -19 6 -17
-86 2 -56 -1 -101 -7 -110 -10 -12 -436 -14 -3171 -12 l-3160 3 -3 3745 c-1
2060 0 3751 3 3758 3 9 112 12 497 12 l493 0 28 -25z m195 19 c40 -5 52 -10
50 -23 -3 -16 1 -16 77 -11 6 0 22 -2 37 -6 19 -4 42 1 75 17 26 13 64 23 83
23 19 -1 53 -1 75 -2 22 -1 50 -1 63 -1 30 1 66 -31 52 -45 -18 -18 -11 -25
25 -24 30 1 35 5 35 25 0 16 -6 23 -20 23 -34 0 -22 17 18 24 20 3 1469 6
3219 6 l3183 0 5 -22 c3 -13 4 -1704 3 -3758 l-3 -3735 -451 -3 -451 -2 -5 47
c-3 27 -6 1182 -6 2567 -1 1386 -5 2523 -10 2528 -4 4 -215 7 -468 6 l-459 -3
-3 -654 c-1 -463 -5 -658 -13 -668 -9 -11 -166 -13 -888 -13 -482 0 -882 4
-889 8 -10 7 -13 106 -12 478 0 258 -3 695 -6 972 l-7 502 -464 0 c-254 0
-464 -1 -465 -2 -2 -2 -5 -300 -8 -663 l-5 -660 -892 -3 c-711 -2 -893 0 -893
10 1 12 -9 1996 -11 2286 0 107 -2 114 -22 122 l-22 9 23 7 c32 9 30 44 -3 44
-33 0 -79 45 -70 68 4 9 9 32 12 50 6 35 14 36 67 16 13 -5 16 1 16 26 0 17
-5 40 -10 50 -6 12 -7 21 -1 25 13 7 11 126 -2 143 -13 16 -42 15 -57 -2 -6
-8 -23 -16 -37 -18 -14 -2 -31 -12 -37 -23 -6 -11 -14 -23 -19 -26 -11 -8 -66
1 -73 12 -9 15 6 49 22 49 24 0 13 43 -13 55 -25 11 -31 35 -9 35 7 0 30 -7
50 -15 43 -18 56 -13 56 21 0 25 -14 32 -25 13 -5 -7 -13 -5 -24 5 -24 22 -88
10 -108 -20 -8 -13 -21 -24 -27 -24 -12 0 -36 -54 -36 -82 0 -18 -47 -42 -78
-39 -20 2 -22 -1 -16 -26 4 -15 8 -29 9 -30 1 -2 19 6 40 17 63 32 76 26 53
-25 -9 -19 -9 -28 0 -37 18 -18 14 -66 -5 -77 -35 -19 -5 -26 95 -23 45 2 54
5 64 27 14 31 38 33 38 3 0 -29 22 -88 33 -88 4 0 -4 -11 -19 -23 -16 -14 -24
-29 -20 -36 6 -9 11 -9 21 -1 10 8 19 8 34 0 25 -13 25 -13 5 -52 -16 -30 -17
-31 -30 -13 -15 20 -21 17 -38 -16 -17 -33 -30 -28 -44 15 -11 33 -10 42 3 62
14 22 14 24 -4 24 -10 0 -21 -7 -25 -15 -3 -9 -18 -15 -36 -15 -37 0 -37 2 -4
35 28 28 25 46 -6 38 -11 -3 -26 0 -33 6 -8 6 -17 8 -20 5 -3 -4 4 -15 16 -25
l22 -18 -33 -30 c-41 -38 -48 -38 -66 -3 -8 15 -26 38 -40 51 -14 14 -26 30
-26 37 0 6 -6 17 -14 24 -24 19 -8 43 24 37 43 -9 72 2 68 27 -4 22 -5 22 -51
11 -23 -6 -29 -4 -34 14 -3 11 -9 21 -14 21 -15 0 -10 62 6 80 14 16 13 18
-16 24 -35 7 -49 1 -49 -20 0 -8 -11 -19 -25 -24 -14 -5 -25 -16 -25 -25 0 -8
-4 -15 -8 -15 -16 0 -52 -37 -52 -53 0 -9 8 -17 17 -19 26 -5 26 -78 0 -78
-10 0 -20 -7 -23 -15 -4 -8 -14 -15 -24 -15 -19 0 -32 60 -34 165 l-1 60 45 3
c49 4 110 42 110 68 0 12 7 14 30 9 22 -5 32 -3 36 9 7 18 39 22 49 6 12 -20
35 -10 35 15 0 14 8 29 19 34 18 10 17 13 -15 48 -31 33 -36 35 -59 25 -14 -7
-35 -12 -46 -12 -11 0 -33 -7 -49 -15 -23 -12 -34 -13 -48 -4 -14 9 -27 9 -50
1 -37 -13 -47 -3 -31 31 9 19 8 31 -5 55 -12 23 -13 32 -3 35 18 8 65 8 125 1z
m7407 -3954 l0 -3955 -728 -3 -728 -2 7 36 c6 33 3 38 -41 80 -40 37 -46 46
-35 59 10 13 10 19 -4 33 -18 21 -21 42 -6 42 16 0 12 30 -5 36 -8 4 -15 12
-15 19 0 37 15 38 588 36 306 -1 576 1 600 5 l42 7 0 3777 c0 2077 3 3780 7
3784 4 3 77 5 162 4 l156 -3 0 -3955z m-7305 3815 c0 -8 -9 -15 -20 -15 -20 0
-26 11 -13 23 12 13 33 7 33 -8z m-175 -32 c5 -13 15 -23 20 -23 18 0 51 -28
42 -36 -4 -4 -22 -9 -40 -10 -17 -1 -41 -4 -52 -6 -14 -2 -20 3 -21 18 -1 12
-4 26 -8 33 -4 6 -4 20 -1 32 9 27 47 22 60 -8z m130 -3 c-3 -5 -10 -10 -16
-10 -5 0 -9 5 -9 10 0 6 7 10 16 10 8 0 12 -4 9 -10z m457 -172 c-15 -15 -26
-4 -18 18 5 13 9 15 18 6 9 -9 9 -15 0 -24z m-77 -18 c8 -13 -13 -40 -31 -40
-8 0 -14 10 -14 25 0 18 5 25 19 25 11 0 23 -5 26 -10z m-655 -202 c0 -10 7
-21 15 -24 8 -4 12 -10 9 -15 -8 -14 -72 -11 -81 4 -5 8 -10 0 -13 -23 -3 -21
-11 -36 -21 -38 -13 -2 -17 9 -22 49 -4 29 -4 56 -1 60 2 5 29 8 59 7 46 -1
55 -4 55 -20z m118 -31 c2 -12 -3 -17 -17 -17 -12 0 -21 6 -21 13 0 31 32 34
38 4z m386 -32 c3 -8 16 -15 30 -15 31 0 40 -14 21 -30 -13 -10 -19 -10 -33 3
-12 11 -22 13 -32 7 -23 -15 -30 -12 -30 13 0 37 32 53 44 22z m-94 -61 c-19
-30 -20 -35 -6 -40 13 -5 15 -14 10 -39 -5 -29 -3 -33 24 -43 34 -12 71 5 58
27 -12 19 13 42 39 35 13 -3 37 1 53 10 47 24 53 21 49 -29 -2 -32 -10 -52
-30 -73 -25 -26 -34 -29 -70 -25 -43 5 -70 -3 -122 -36 -49 -32 -66 -26 -102
31 -18 29 -31 53 -29 55 1 2 22 -7 45 -19 41 -23 42 -23 56 -4 23 30 18 38
-16 31 l-31 -7 17 26 c17 25 16 26 -8 35 -36 14 -42 40 -12 51 14 5 25 16 25
24 0 15 49 37 63 29 4 -3 -2 -20 -13 -39z m-420 10 c0 -17 -36 -19 -46 -3 -8
14 14 29 33 22 7 -3 13 -11 13 -19z m55 -13 c7 -12 -12 -24 -25 -16 -11 7 -4
25 10 25 5 0 11 -4 15 -9z m645 -21 c0 -19 -17 -36 -27 -26 -3 3 -2 17 1 31 7
28 26 25 26 -5z m-690 -136 c0 -14 -4 -23 -10 -19 -5 3 -10 15 -10 26 0 10 5
19 10 19 6 0 10 -12 10 -26z m620 -64 c0 -10 -4 -21 -9 -25 -6 -3 -6 -18 -1
-36 5 -16 6 -37 3 -45 -3 -9 -6 -42 -7 -75 -1 -51 -4 -59 -20 -59 -16 0 -18 6
-14 44 3 25 2 48 -2 53 -4 4 -10 21 -14 36 -6 24 -3 30 14 34 35 9 22 24 -15
17 -40 -7 -42 -1 -16 43 27 44 81 53 81 13z m-592 -24 c2 -16 -1 -33 -7 -39
-16 -16 -36 7 -39 43 -2 28 0 31 20 28 17 -2 24 -11 26 -32z m5529 -5770 c-4
-25 -3 -46 2 -48 4 -2 11 -15 14 -30 6 -21 3 -28 -13 -33 -11 -3 -20 -11 -20
-16 0 -12 13 -12 26 1 11 11 44 4 44 -9 0 -17 -48 -61 -70 -63 -24 -3 -25 -2
-23 57 3 65 10 178 12 183 0 1 8 2 17 2 14 0 16 -7 11 -44z m583 -142 c12 -30
6 -44 -20 -44 -24 0 -29 9 -23 43 7 34 30 35 43 1z m-332 -64 c35 -43 47 -86
15 -57 -27 24 -73 33 -84 16 -15 -24 -10 -31 16 -25 24 6 35 -7 15 -19 -17
-11 -11 -35 10 -35 10 0 24 -9 30 -20 9 -17 7 -20 -15 -26 -14 -3 -25 -12 -25
-19 0 -13 -59 -39 -68 -31 -2 3 4 19 14 36 15 24 16 32 6 39 -9 5 -11 17 -7
34 6 23 3 28 -20 37 -38 14 -65 4 -62 -23 2 -18 -5 -23 -38 -28 -22 -3 -52
-11 -67 -17 -32 -13 -36 -9 -35 41 2 58 33 82 112 82 39 0 69 6 80 15 59 49
82 49 123 0z m334 -35 c3 -14 1 -25 -3 -25 -5 0 -9 4 -9 9 0 5 -3 16 -6 25 -3
9 -2 16 4 16 5 0 12 -11 14 -25z m-672 -107 c0 -7 -4 -19 -9 -27 -11 -17 -25
3 -17 24 7 18 26 20 26 3z m640 -29 c0 -5 -7 -9 -15 -9 -15 0 -20 12 -9 23 8
8 24 -1 24 -14z m-561 -36 c8 -30 7 -40 -5 -54 -21 -23 1 -37 25 -15 10 9 30
16 46 16 l28 0 -27 -25 c-32 -30 -34 -49 -4 -42 12 3 30 2 40 -4 22 -12 23 -3
2 18 -14 14 -13 18 12 44 33 35 52 37 63 7 5 -13 23 -35 40 -51 17 -15 31 -34
31 -42 0 -8 5 -15 10 -15 15 0 12 -30 -2 -31 -7 -1 -29 0 -49 1 -43 2 -54 -10
-35 -35 10 -14 17 -15 34 -6 28 15 42 14 42 -3 0 -7 7 -19 15 -26 28 -23 13
-80 -22 -80 -7 0 -13 8 -13 18 0 29 -10 32 -43 11 -45 -27 -71 -26 -62 4 8 26
8 31 -1 75 -5 25 -2 36 11 46 26 19 3 25 -76 21 -55 -3 -67 -8 -85 -30 -17
-22 -23 -24 -32 -12 -7 8 -9 17 -6 20 4 3 -1 22 -10 41 -16 33 -15 36 1 56 22
26 17 35 -22 35 -34 0 -42 20 -20 49 12 16 18 17 27 8 18 -18 27 -15 38 13 14
37 37 31 49 -12z m629 20 c-4 -21 -19 -26 -38 -13 -13 9 -13 11 0 20 23 15 42
12 38 -7z m-568 -13 c0 -5 13 -7 30 -3 26 5 30 3 30 -16 0 -28 -29 -39 -45
-18 -7 10 -22 17 -33 17 -22 0 -36 13 -25 24 10 10 43 7 43 -4z m623 -25 c-2
-11 3 -31 9 -44 11 -20 10 -25 -7 -37 -11 -8 -26 -12 -33 -9 -8 3 -27 5 -43 5
-19 0 -29 5 -29 15 0 7 -8 18 -17 24 -16 8 -15 11 11 21 20 7 32 8 40 0 20
-20 36 -11 36 21 0 24 4 30 18 27 10 -2 16 -12 15 -23z m-183 -35 c0 -4 -6
-13 -14 -19 -17 -14 -31 2 -22 24 5 15 36 10 36 -5z m-13 -81 c-3 -11 0 -37 7
-57 7 -20 12 -57 11 -82 l-1 -45 -45 -5 c-42 -5 -87 -26 -115 -54 -12 -13
-204 -21 -204 -9 0 21 56 38 110 32 63 -7 80 -3 80 17 0 8 6 14 14 14 22 0 31
21 15 32 -11 8 -11 9 2 5 20 -6 84 47 75 62 -4 6 -14 11 -22 11 -9 0 -14 11
-14 35 0 29 4 35 20 35 11 0 23 7 26 15 4 8 15 15 26 15 16 0 19 -5 15 -21z
m125 11 c14 0 18 -5 14 -15 -4 -12 1 -15 22 -13 23 3 27 -1 30 -24 2 -18 -3
-30 -17 -37 -18 -10 -18 -13 -5 -41 9 -16 13 -34 10 -39 -3 -5 1 -23 10 -40
24 -47 15 -56 -57 -58 -84 -3 -97 5 -73 45 14 24 15 34 5 45 -9 12 -9 18 4 30
8 9 15 33 15 56 0 31 4 41 21 46 24 8 20 29 -7 31 -34 3 -35 4 -29 15 4 6 14
8 22 5 8 -3 24 -6 35 -6z m-644 -133 c4 -21 -25 -34 -40 -19 -8 8 -8 16 2 27
16 19 34 15 38 -8z m-98 -42 c0 -8 -7 -15 -15 -15 -16 0 -20 12 -8 23 11 12
23 8 23 -8z m148 -67 c-2 -18 -11 -24 -37 -26 -38 -4 -55 7 -45 31 4 12 18 17
46 17 35 0 39 -2 36 -22z m462 -12 c0 -3 -4 -8 -10 -11 -5 -3 -10 -1 -10 4 0
6 5 11 10 11 6 0 10 -2 10 -4z m-560 -107 c0 -26 3 -29 17 -20 13 7 22 6 33
-4 21 -19 89 -3 110 25 9 12 31 23 55 26 30 4 36 3 25 -5 -12 -8 -12 -11 -2
-11 8 0 26 -13 42 -30 30 -32 21 -33 138 7 33 12 46 12 57 3 11 -9 23 -9 45
-2 34 12 43 4 34 -32 -3 -13 0 -35 7 -48 7 -12 13 -59 14 -103 1 -44 5 -88 10
-98 7 -16 0 -17 -89 -16 l-96 2 0 38 c0 35 3 39 26 39 22 0 25 3 22 32 -2 25
-9 34 -28 38 -20 5 -26 13 -28 43 -3 31 -7 37 -26 37 -12 0 -27 -5 -34 -12 -9
-9 -17 -9 -36 2 -35 18 -119 -4 -111 -30 7 -23 -17 -42 -62 -49 -27 -5 -40
-14 -52 -37 -12 -23 -27 -34 -59 -44 l-43 -13 22 -23 22 -24 -3239 3 -3239 2
-3 155 c-1 85 0 160 2 167 4 11 599 13 3236 13 l3230 0 0 -31z m120 15 c0 -12
-7 -14 -32 -9 -59 13 -66 24 -15 25 36 0 47 -4 47 -16z m445 6 c-3 -5 -12 -10
-20 -10 -8 0 -17 5 -20 10 -4 6 5 10 20 10 15 0 24 -4 20 -10z m-197 -12 c-6
-18 -28 -21 -28 -4 0 9 7 16 16 16 9 0 14 -5 12 -12z m52 -208 c0 -5 -4 -10
-10 -10 -5 0 -10 5 -10 10 0 6 5 10 10 10 6 0 10 -4 10 -10z m-192 -17 c12 -3
22 -12 22 -20 0 -11 -9 -12 -37 -7 -21 3 -42 10 -47 14 -13 13 4 32 23 24 9
-3 26 -9 39 -11z m-136 -73 l33 -20 -52 0 c-29 0 -53 2 -53 4 0 16 14 36 26
36 7 0 28 -9 46 -20z m263 -13 c13 -3 9 -5 -12 -6 -24 -1 -33 3 -33 15 0 12 3
14 13 6 6 -5 21 -12 32 -15z m-60 -177 c17 -18 17 -22 4 -35 -22 -22 -54 3
-45 33 9 27 18 28 41 2z m17 -105 c0 -5 -5 -11 -11 -13 -6 -2 -11 4 -11 13 0
9 5 15 11 13 6 -2 11 -8 11 -13z"/>
<path d="M14916 23555 c-3 -9 -2 -24 3 -33 9 -16 10 -16 16 0 4 9 2 24 -3 33
-8 16 -9 16 -16 0z"/>
<path d="M14915 23480 c-4 -6 -2 -17 4 -23 15 -15 25 -2 13 19 -7 12 -11 13
-17 4z"/>
<path d="M14930 23389 c0 -5 5 -7 10 -4 6 3 10 8 10 11 0 2 -4 4 -10 4 -5 0
-10 -5 -10 -11z"/>
<path d="M14580 23162 c0 -34 25 -61 41 -45 6 6 9 23 7 39 -2 21 -9 30 -25 32
-19 3 -23 -1 -23 -26z"/>
<path d="M20075 16020 c-9 -15 3 -30 20 -24 23 9 27 34 5 34 -10 0 -22 -4 -25
-10z"/>
<path d="M15295 23220 c-7 -12 2 -30 16 -30 5 0 9 9 9 20 0 21 -15 27 -25 10z"/>
<path d="M15220 23195 c-10 -12 -10 -15 4 -15 9 0 16 7 16 15 0 8 -2 15 -4 15
-2 0 -9 -7 -16 -15z"/>
<path d="M15348 23193 c-10 -2 -18 -11 -18 -18 0 -11 6 -11 30 1 43 22 37 30
-12 17z"/>
<path d="M15154 23159 c-3 -6 -2 -15 4 -21 15 -15 46 -5 50 15 3 12 -3 17 -22
17 -14 0 -28 -5 -32 -11z"/>
<path d="M15302 22728 c-18 -18 -14 -28 8 -28 11 0 20 6 20 14 0 21 -15 27
-28 14z"/>
<path d="M15477 22705 c-4 -8 -2 -17 4 -21 11 -6 39 13 39 27 0 15 -37 10 -43
-6z"/>
<path d="M20960 15606 c0 -22 6 -36 16 -40 36 -14 47 29 16 57 -27 24 -32 21
-32 -17z"/>
<path d="M20260 16006 c0 -8 4 -17 9 -20 11 -7 33 18 24 27 -12 12 -33 7 -33
-7z"/>
<path d="M20380 15604 c0 -9 -10 -24 -22 -35 -20 -16 -21 -18 -5 -19 10 0 20
6 23 14 3 8 19 19 36 25 34 12 29 31 -8 31 -15 0 -24 -6 -24 -16z"/>
<path d="M20093 15583 c-29 -6 -32 -43 -3 -43 22 0 44 -34 36 -56 -3 -8 -17
-14 -31 -14 -22 0 -25 -4 -25 -34 0 -35 13 -55 25 -36 3 5 22 10 42 10 l36 0
-6 53 c-5 37 -13 57 -29 71 -15 13 -19 20 -10 23 6 3 12 11 12 19 0 14 -6 15
-47 7z"/>
<path d="M20225 15575 l-30 -13 33 -1 c22 -1 32 4 32 14 0 8 -1 15 -2 15 -2
-1 -16 -7 -33 -15z"/>
<path d="M20270 15544 c0 -9 5 -14 12 -12 18 6 21 28 4 28 -9 0 -16 -7 -16
-16z"/>
<path d="M14890 23825 c0 -42 11 -76 21 -69 11 6 1 74 -12 89 -5 5 -9 -3 -9
-20z"/>
<path d="M14806 23832 c-3 -6 -1 -14 5 -17 15 -10 25 3 12 16 -7 7 -13 7 -17
1z"/>
<path d="M15226 23762 l-29 -15 27 -14 c33 -17 51 -6 39 23 -7 18 -10 19 -37
6z"/>
<path d="M20795 15159 c-16 -10 -40 -19 -52 -19 -18 0 -23 -6 -23 -28 0 -30
16 -52 37 -52 8 0 13 12 13 30 0 17 5 30 13 30 6 0 23 9 37 20 36 27 14 43
-25 19z"/>
<path d="M20325 15070 c-3 -6 -2 -17 3 -26 6 -11 12 -13 16 -6 4 6 14 8 23 5
10 -4 14 -2 11 7 -5 17 -46 32 -53 20z"/>
<path d="M20673 15013 c4 -20 12 -41 18 -47 9 -8 10 -5 5 14 -3 14 -6 35 -6
48 0 12 -5 22 -11 22 -8 0 -10 -13 -6 -37z"/>
<path d="M20752 14988 c5 -15 28 -23 28 -10 0 5 -7 13 -16 16 -10 4 -14 1 -12
-6z"/>
<path d="M17170 14230 l0 -280 75 0 75 0 0 133 c0 117 2 136 18 150 22 20 63
22 80 5 8 -8 12 -56 12 -150 l0 -139 78 3 77 3 -1 155 c0 168 -7 197 -55 232
-36 27 -128 26 -174 -1 l-35 -20 0 94 0 95 -75 0 -75 0 0 -280z"/>
<path d="M21430 14420 c0 -81 -8 -107 -25 -80 -10 17 -82 31 -125 24 -88 -14
-133 -83 -134 -204 0 -143 53 -210 169 -210 52 0 65 4 97 30 l37 30 3 -27 c3
-27 6 -28 66 -31 l62 -3 0 281 0 280 -75 0 -75 0 0 -90z m-12 -200 c19 -36 10
-129 -13 -146 -25 -19 -65 -17 -87 3 -24 22 -26 134 -2 158 25 25 85 16 102
-15z"/>
<path d="M14470 14215 l0 -266 83 3 82 3 3 98 3 97 89 0 89 0 3 -97 3 -98 83
-3 82 -3 0 266 0 265 -85 0 -85 0 0 -95 0 -95 -90 0 -90 0 0 95 0 95 -85 0
-85 0 0 -265z"/>
<path d="M17950 14215 l0 -266 83 3 82 3 3 98 3 97 94 0 95 0 0 -100 0 -100
80 0 80 0 0 265 0 265 -80 0 -80 0 0 -95 0 -95 -95 0 -95 0 0 95 0 95 -85 0
-85 0 0 -265z"/>
<path d="M15235 14361 c-60 -11 -114 -40 -130 -72 -28 -53 -22 -59 58 -59 60
0 75 3 90 20 32 38 107 17 107 -29 0 -15 -12 -19 -80 -24 -92 -6 -167 -37
-188 -77 -21 -40 -10 -120 21 -146 47 -41 157 -42 226 -2 34 19 34 19 55 -1
26 -24 98 -36 141 -23 28 8 30 12 30 53 0 37 -3 44 -21 47 -20 3 -22 10 -26
117 -5 129 -12 144 -83 175 -47 21 -144 31 -200 21z m125 -260 c0 -36 -31 -61
-76 -61 -67 0 -69 54 -3 77 60 21 79 17 79 -16z"/>
<path d="M15856 14358 c-22 -4 -54 -20 -72 -33 l-33 -25 -3 27 c-3 27 -6 28
-65 31 l-63 3 0 -206 0 -205 75 0 75 0 0 128 c0 144 10 172 59 172 45 0 52
-17 52 -144 1 -165 -3 -157 83 -154 l71 3 0 160 c0 137 -3 165 -18 188 -34 52
-91 71 -161 55z"/>
<path d="M16395 14365 c-5 -2 -22 -6 -37 -9 -14 -3 -40 -18 -57 -32 l-31 -26
-6 32 -7 31 -61 -3 -61 -3 0 -200 0 -200 75 0 75 0 5 138 c5 148 9 157 61 157
15 0 31 -6 37 -13 7 -8 13 -69 14 -148 l3 -134 73 -3 72 -3 0 156 c0 169 -9
209 -51 236 -24 16 -86 30 -104 24z"/>
<path d="M16785 14360 c-88 -13 -145 -55 -145 -107 0 -22 4 -23 70 -23 57 0
74 4 90 20 11 11 30 20 43 20 31 0 67 -27 67 -51 0 -16 -7 -19 -53 -19 -83 0
-168 -26 -199 -60 -36 -39 -39 -113 -7 -153 40 -51 165 -60 236 -16 l32 20 22
-20 c27 -25 93 -36 139 -24 33 9 35 11 35 53 0 39 -3 45 -25 50 -25 6 -25 8
-30 122 -4 95 -8 120 -24 137 -38 42 -154 65 -251 51z m125 -255 c0 -36 -33
-65 -74 -65 -69 0 -72 53 -5 77 57 20 79 17 79 -12z"/>
<path d="M18740 14364 c-99 -16 -151 -50 -165 -106 l-7 -28 74 0 c62 0 78 3
93 20 33 36 105 19 105 -24 0 -22 -5 -23 -80 -29 -138 -11 -200 -55 -200 -142
0 -35 25 -82 53 -97 38 -21 156 -15 204 10 36 19 43 19 53 7 19 -22 86 -37
136 -29 l44 6 0 49 c0 45 -2 49 -24 49 -24 0 -24 1 -28 114 -3 106 -5 116 -28
141 -14 15 -38 32 -55 39 -33 14 -136 26 -175 20z m100 -261 c0 -39 -27 -63
-71 -63 -72 0 -71 63 1 80 62 14 70 12 70 -17z"/>
<path d="M20435 14361 c-60 -11 -114 -40 -130 -72 -28 -53 -22 -59 58 -59 60
0 75 3 90 20 32 38 107 17 107 -29 0 -15 -12 -19 -79 -24 -146 -10 -209 -59
-198 -156 6 -56 37 -86 101 -95 56 -9 111 0 155 26 34 19 34 19 55 -1 26 -24
98 -36 141 -23 28 8 30 12 30 53 0 37 -3 44 -21 47 -20 3 -22 10 -26 117 -4
105 -6 117 -29 141 -13 14 -38 31 -54 38 -40 17 -149 26 -200 17z m125 -260
c0 -36 -31 -61 -76 -61 -67 0 -69 54 -3 77 60 21 79 17 79 -16z"/>
<path d="M21015 14356 c-17 -7 -37 -21 -45 -31 -14 -17 -15 -16 -20 6 -5 22
-12 24 -68 27 l-62 3 0 -206 0 -205 74 0 74 0 4 120 c4 140 9 150 87 158 l51
5 0 62 c0 57 -2 63 -22 69 -31 8 -38 7 -73 -8z"/>
<path d="M19060 14350 c0 -6 34 -94 75 -197 41 -103 75 -197 75 -210 0 -28
-14 -37 -75 -43 l-50 -5 -3 -43 c-3 -38 0 -43 23 -52 61 -23 153 -4 203 43 13
12 33 40 44 61 22 43 168 431 168 447 0 5 -32 9 -70 9 -82 0 -74 11 -117 -155
-15 -58 -30 -105 -33 -105 -4 0 -24 59 -45 130 l-38 130 -79 0 c-46 0 -78 -4
-78 -10z"/>
<path d="M19530 14353 c0 -5 32 -95 72 -200 l71 -193 49 -1 c26 -1 60 -2 75
-3 26 -1 28 3 57 106 17 59 33 104 37 100 4 -4 19 -51 34 -104 l28 -98 76 0
76 0 70 188 c38 103 71 193 73 200 3 9 -15 12 -67 12 -82 0 -76 8 -112 -133
-11 -45 -24 -86 -28 -90 -4 -4 -21 43 -37 105 l-30 113 -75 3 -76 3 -33 -121
c-18 -66 -34 -120 -35 -118 -2 2 -15 48 -30 103 -14 55 -28 108 -31 118 -5 14
-18 17 -85 17 -43 0 -79 -3 -79 -7z"/>
<path d="M16123 13385 c-12 -9 -25 -31 -29 -50 -3 -20 -12 -35 -20 -35 -9 0
-14 -12 -14 -35 0 -24 5 -35 15 -35 12 0 15 -17 15 -95 l0 -95 50 0 50 0 0 95
c0 88 1 95 20 95 12 0 22 9 26 24 7 31 -1 46 -27 46 -27 0 -24 28 4 32 17 2
22 10 22 33 0 28 -2 30 -45 33 -29 2 -53 -3 -67 -13z"/>
<path d="M19330 13214 l0 -175 48 3 47 3 3 173 2 172 -50 0 -50 0 0 -176z"/>
<path d="M15461 13364 c-46 -19 -60 -41 -61 -90 0 -54 29 -81 116 -105 76 -21
79 -23 71 -44 -9 -22 -64 -19 -84 5 -13 15 -30 20 -65 20 -41 0 -48 -3 -48
-20 0 -11 13 -34 29 -52 28 -31 33 -33 110 -36 89 -4 132 7 156 42 17 23 20
88 5 116 -10 18 -60 40 -137 60 -43 11 -57 33 -27 44 27 10 44 7 61 -14 12
-14 30 -20 60 -20 39 0 43 2 43 25 0 70 -135 110 -229 69z"/>
<path d="M16317 13373 c-3 -4 -8 -23 -12 -40 -5 -23 -12 -33 -26 -33 -15 0
-19 -7 -19 -35 0 -24 5 -35 15 -35 12 0 15 -15 15 -75 0 -97 15 -115 95 -115
54 0 55 0 55 29 0 23 -5 30 -22 33 -21 3 -23 9 -26 66 -3 61 -2 62 23 62 22 0
25 4 25 35 0 30 -3 35 -24 35 -21 0 -25 5 -28 38 -3 33 -6 37 -35 40 -17 2
-33 -1 -36 -5z"/>
<path d="M18000 13210 l0 -172 108 4 c117 3 152 15 186 61 17 23 21 43 21 105
0 131 -43 164 -212 170 l-103 4 0 -172z m167 79 c37 -14 43 -25 43 -81 0 -57
-25 -88 -70 -88 l-30 0 0 83 c0 103 3 107 57 86z"/>
<path d="M15815 13290 c-89 -37 -99 -192 -14 -235 37 -19 132 -19 169 0 80 41
80 189 0 230 -31 16 -122 19 -155 5z m96 -60 c15 -8 19 -21 19 -58 0 -52 -12
-72 -45 -72 -12 0 -26 5 -33 12 -18 18 -15 94 4 112 18 19 28 20 55 6z"/>
<path d="M16461 13292 c2 -4 24 -63 49 -130 l44 -122 48 0 47 0 17 58 c10 31
21 61 24 65 4 4 15 -22 25 -58 l17 -65 48 0 48 0 46 126 c25 69 46 128 46 130
0 3 -21 4 -47 2 l-47 -3 -17 -68 c-9 -38 -19 -71 -22 -73 -3 -3 -13 29 -23 71
l-18 76 -50 -3 -50 -3 -16 -62 c-8 -34 -18 -65 -22 -68 -4 -4 -12 13 -18 36
-25 98 -22 94 -79 97 -29 2 -51 -1 -50 -6z"/>
<path d="M16995 13289 c-25 -15 -45 -39 -45 -56 0 -16 85 -18 95 -3 9 14 48
13 63 -2 20 -20 14 -28 -19 -28 -52 0 -119 -22 -134 -43 -20 -28 -19 -67 1
-96 15 -21 22 -22 83 -17 83 7 84 7 154 0 l57 -6 0 31 c0 21 -5 31 -15 31 -12
0 -15 14 -15 69 0 59 -4 74 -24 98 -22 25 -31 28 -103 31 -46 1 -86 -2 -98 -9z
m125 -154 c0 -20 -43 -47 -64 -39 -35 14 -9 54 36 54 18 0 28 -5 28 -15z"/>
<path d="M17280 13170 l0 -130 50 0 50 0 0 74 c0 66 3 77 22 90 12 9 33 16 45
16 20 0 23 5 23 40 0 38 -2 40 -30 40 -17 0 -40 -6 -51 -12 -17 -10 -23 -10
-26 0 -3 7 -22 12 -44 12 l-39 0 0 -130z"/>
<path d="M17548 13284 c-78 -42 -77 -188 2 -229 43 -22 147 -20 188 5 17 11
32 24 32 29 0 5 3 16 6 25 5 13 -2 16 -44 16 -35 0 -52 -4 -56 -15 -7 -18 -57
-20 -74 -3 -30 30 -13 38 78 38 103 0 110 6 91 71 -17 55 -58 79 -136 79 -33
-1 -72 -7 -87 -16z m120 -56 c21 -21 13 -28 -33 -28 -25 0 -45 4 -45 8 0 15
24 32 45 32 12 0 26 -5 33 -12z"/>
<path d="M18430 13287 c-35 -18 -70 -74 -70 -114 0 -48 27 -101 61 -118 17 -9
56 -15 99 -15 66 0 74 2 101 29 43 43 39 61 -15 61 -26 0 -48 -6 -56 -15 -24
-29 -90 -13 -90 22 0 10 24 13 95 13 l95 0 0 29 c0 78 -50 121 -140 121 -30 0
-66 -6 -80 -13z m118 -69 c3 -15 -4 -18 -42 -18 -25 0 -46 4 -46 8 0 34 82 42
88 10z"/>
<path d="M18680 13287 c0 -6 20 -64 44 -127 l44 -115 53 0 53 0 43 110 c62
160 62 145 9 145 -51 0 -55 -5 -76 -85 -7 -27 -17 -54 -21 -59 -4 -5 -18 25
-31 68 l-22 76 -48 0 c-32 0 -48 -4 -48 -13z"/>
<path d="M19053 13284 c-56 -28 -78 -108 -49 -179 20 -47 60 -65 146 -65 66 0
74 2 101 29 43 43 39 61 -15 61 -26 0 -48 -6 -56 -15 -24 -29 -90 -13 -90 22
0 10 24 13 95 13 l95 0 0 30 c0 43 -25 87 -60 105 -38 19 -126 19 -167 -1z
m115 -56 c21 -21 13 -28 -33 -28 -25 0 -45 4 -45 8 0 15 24 32 45 32 12 0 26
-5 33 -12z"/>
<path d="M19555 13290 c-89 -37 -99 -192 -14 -235 37 -19 132 -19 169 0 80 41
80 189 0 230 -31 16 -122 19 -155 5z m96 -60 c15 -8 19 -21 19 -58 0 -52 -12
-72 -45 -72 -12 0 -26 5 -33 12 -18 18 -15 94 4 112 18 19 28 20 55 6z"/>
<path d="M19820 13125 l0 -175 50 0 50 0 0 51 c0 43 3 50 16 45 67 -26 127 -6
149 48 29 68 14 161 -30 190 -31 20 -94 20 -123 0 -20 -14 -23 -14 -28 0 -4
11 -19 16 -45 16 l-39 0 0 -175z m169 91 c7 -8 11 -34 9 -58 -3 -39 -6 -43
-32 -46 -34 -4 -46 10 -46 59 0 53 40 80 69 45z"/>
<path d="M20194 13281 c-40 -25 -58 -69 -52 -132 8 -75 38 -102 122 -107 36
-2 77 -1 91 2 33 8 65 41 65 66 0 17 -7 20 -44 20 -31 0 -46 -5 -50 -16 -4
-11 -17 -14 -43 -12 -31 2 -39 7 -41 26 -3 21 -1 22 87 22 l91 0 0 43 c0 47
-23 81 -67 98 -42 16 -125 11 -159 -10z m124 -53 c21 -21 13 -28 -33 -28 -25
0 -45 4 -45 8 0 15 24 32 45 32 12 0 26 -5 33 -12z"/>
<path d="M20480 13170 l0 -130 45 0 45 0 0 59 c0 84 11 108 55 117 33 6 35 8
35 45 0 35 -3 39 -26 39 -14 0 -35 -5 -46 -11 -14 -8 -23 -8 -31 0 -6 6 -26
11 -44 11 l-33 0 0 -130z"/>
</g>
</svg>
